<svg width="1000" height="1000" viewBox="0 0 1000 1000" fill="none" xmlns="http://www.w3.org/2000/svg">
<rect width="1000" height="1000" fill="#0F172A"/>
<path fill-rule="evenodd" clip-rule="evenodd" d="M230.724 374.787C232.88 377.459 233.979 381.065 236.178 388.277L284.205 545.824C266.165 536.475 246.803 529.929 226.786 526.412L195.515 420.888C195.266 420.046 194.75 419.308 194.046 418.783C193.341 418.258 192.485 417.975 191.606 417.976C190.727 417.978 189.872 418.263 189.169 418.79C188.466 419.318 187.952 420.058 187.706 420.9L156.814 526.358C136.706 529.86 117.255 536.416 99.1357 545.8L147.399 388.24C149.604 381.041 150.707 377.441 152.863 374.774C154.766 372.419 157.241 370.59 160.053 369.462C163.238 368.184 167.007 368.184 174.547 368.184H209.019C216.568 368.184 220.343 368.184 223.531 369.465C226.345 370.595 228.822 372.428 230.724 374.787Z" fill="white"/>
<path fill-rule="evenodd" clip-rule="evenodd" d="M236.471 553.321C228.554 560.082 212.751 564.693 194.548 564.693C172.206 564.693 153.48 557.747 148.511 548.406C146.735 553.76 146.337 559.887 146.337 563.801C146.337 563.801 145.166 583.019 158.553 596.387C158.553 589.446 164.187 583.819 171.138 583.819C183.052 583.819 183.038 594.198 183.028 602.619L183.027 603.371C183.027 616.152 190.85 627.109 201.975 631.727C200.313 628.314 199.381 624.482 199.381 620.432C199.381 608.241 206.548 603.703 214.877 598.427C221.504 594.23 228.868 589.567 233.942 580.213C236.59 575.332 238.094 569.741 238.094 563.801C238.094 560.147 237.525 556.626 236.471 553.321Z" fill="#FF5D01"/>
<path d="M394.47 543.36C414.56 543.36 429.627 536.223 435.807 524.072C435.807 529.858 436.192 535.838 437.159 540.467H470.188C468.644 533.716 467.87 524.457 467.87 512.306V482.601C467.87 454.44 451.259 441.131 414.365 441.131C382.108 441.131 360.474 454.44 357.963 476.236H392.346C393.505 466.785 401.424 461.577 414.365 461.577C427.113 461.577 434.261 466.785 434.261 477.587V480.479L399.3 483.566C382.301 485.302 372.643 488.195 365.883 492.824C358.736 497.646 355.066 504.976 355.066 514.041C355.066 532.173 370.132 543.36 394.47 543.36ZM407.22 523.3C396.015 523.3 389.255 518.864 389.255 511.727C389.255 504.398 394.856 500.54 408.959 498.804L434.84 496.103V501.89C434.84 514.813 423.638 523.3 407.22 523.3ZM539.855 543.36C573.463 543.36 590.657 530.823 590.657 510.57C590.657 493.789 580.998 484.53 557.627 481.444L528.457 478.165C520.153 477.007 516.676 474.885 516.676 470.256C516.676 464.663 522.277 462.155 535.025 462.155C552.603 462.155 564.772 466.206 574.626 474.114L590.269 458.491C579.452 447.303 560.718 441.131 537.536 441.131C504.894 441.131 486.737 452.704 486.737 472.185C486.737 489.159 497.939 498.611 521.118 501.697L547.39 504.783C557.82 506.133 560.91 508.062 560.91 513.077C560.91 518.864 555.114 521.95 541.593 521.95C521.505 521.95 507.985 516.549 498.906 506.519L481.133 521.178C492.917 535.838 513.006 543.36 539.855 543.36ZM617.928 465.82V506.519C617.928 530.437 631.449 542.589 660.424 542.589C669.31 542.589 676.263 541.624 682.831 539.695V514.62C679.353 515.392 675.103 516.163 669.502 516.163C657.333 516.163 651.345 510.763 651.345 499.382V465.82H683.023V444.024H651.345V408.726L617.928 421.071V444.024H596.293V465.82H617.928ZM730.998 444.024H700.479V540.467H733.896V504.398C733.896 493.981 736.214 484.53 742.59 478.55C747.612 473.921 754.759 471.414 764.802 471.414C768.472 471.414 771.37 471.799 774.652 472.185V441.902C772.529 441.517 770.983 441.517 768.28 441.517C749.155 441.517 736.214 452.511 730.998 470.45V444.024ZM840.687 543.36C876.038 543.36 900.956 524.65 900.956 492.053C900.956 459.648 876.038 441.131 840.687 441.131C805.147 441.131 780.23 459.648 780.23 492.053C780.23 524.65 805.147 543.36 840.687 543.36ZM840.687 521.178C824.464 521.178 814.226 510.763 814.226 492.053C814.226 473.343 824.464 463.313 840.687 463.313C856.721 463.313 866.959 473.343 866.959 492.053C866.959 510.763 856.721 521.178 840.687 521.178Z" fill="white"/>
</svg>
