<svg xmlns="http://www.w3.org/2000/svg" width="513" height="236" fill="none">
  <path fill="#fff" d="M6.72 1.8h25v36.94h36.1V1.81H92.8V99H67.81V59.29h-36.1V99h-25V1.8Zm137.42 99a46.7 46.7 0 0 1-14.57-2.22 33.82 33.82 0 0 1-11.95-7.08 32.63 32.63 0 0 1-8.05-11.8c-1.94-4.81-2.91-10.41-2.91-16.8v-2.78c0-6.01.97-11.29 2.91-15.83a31.8 31.8 0 0 1 8.05-11.38 34.94 34.94 0 0 1 11.94-6.94 44.18 44.18 0 0 1 14.58-2.36c5.19 0 10.05.78 14.58 2.36a34.93 34.93 0 0 1 11.94 6.94 31.78 31.78 0 0 1 8.06 11.38c1.94 4.54 2.91 9.82 2.91 15.83v2.78c0 6.3-.97 11.85-2.91 16.66a32.62 32.62 0 0 1-8.06 11.8 33.81 33.81 0 0 1-11.94 7.08 44.18 44.18 0 0 1-14.58 2.37Zm0-17.77c5 0 8.84-1.8 11.53-5.41 2.68-3.61 4.03-8.52 4.03-14.72v-2.78c0-5.55-1.35-10.04-4.03-13.47-2.69-3.51-6.53-5.27-11.53-5.27-5 0-8.84 1.76-11.52 5.27-2.68 3.43-4.03 7.92-4.03 13.47v2.78c0 6.39 1.35 11.34 4.03 14.86 2.68 3.51 6.53 5.27 11.52 5.27Zm74.93 16.8a53 53 0 0 1-11.53-1.1 17.45 17.45 0 0 1-8.05-4.03c-2.04-2.04-3.56-4.77-4.58-8.2-1.02-3.51-1.53-8-1.53-13.46V1.8h21.38v68.03c0 2.32.14 4.26.42 5.83a9.35 9.35 0 0 0 1.39 3.75 6.67 6.67 0 0 0 3.05 2.09 18 18 0 0 0 4.86.55h2.78l2.22-.28v17.64c-2.78.27-6.25.41-10.41.41Zm31.99 28.74c-1.39 0-2.78-.13-4.16-.41v-17.77c1.38.27 2.77.41 4.16.41 2.69 0 4.77-.92 6.25-2.77 1.48-1.76 3.05-4.82 4.72-9.17l-31.1-73.45h23.6l18.33 49.01 17.36-49h21.24L283.27 99a165.7 165.7 0 0 1-5.83 13.33 34.25 34.25 0 0 1-6.38 9.3 20.68 20.68 0 0 1-8.34 5.28c-3.14 1.1-7.03 1.66-11.66 1.66Zm97.84-27.77c-10.74 0-18.94-3-24.58-9.02-5.65-6.1-8.56-14.81-8.75-26.1h23.6c.19 4.72.98 8.28 2.37 10.69 1.38 2.4 3.84 3.6 7.35 3.6 3.15 0 5.56-1.15 7.22-3.46 1.67-2.41 2.5-6.48 2.5-12.22V1.8h25v62.48c0 6.66-.84 12.3-2.5 16.94a29.44 29.44 0 0 1-7.09 11.38 27.42 27.42 0 0 1-10.96 6.25 48.51 48.51 0 0 1-14.17 1.95Zm89.6 0c-13.61 0-23.8-2.63-30.55-7.9-6.67-5.29-10.14-12.5-10.42-21.67h25c.74 3.52 2.36 6.11 4.86 7.78 2.5 1.57 6.2 2.36 11.1 2.36 10.65 0 15.97-2.97 15.97-8.89a7 7 0 0 0-1.53-4.72c-1.01-1.3-2.5-2.4-4.44-3.33a33.95 33.95 0 0 0-7.22-2.64 278 278 0 0 0-10-2.36 99.77 99.77 0 0 1-13.05-3.89 33.8 33.8 0 0 1-9.72-5.97 26.04 26.04 0 0 1-6.1-8.6c-1.4-3.43-2.09-7.5-2.09-12.23 0-4.53.88-8.56 2.64-12.08a23.92 23.92 0 0 1 7.63-9.02c3.34-2.5 7.36-4.4 12.09-5.7C427.38.66 432.67 0 438.49 0c12.78 0 22.26 2.46 28.47 7.36 6.3 4.9 9.76 11.85 10.41 20.83h-25c-.55-2.96-1.89-5.14-4.02-6.53-2.13-1.48-5.41-2.22-9.86-2.22-4.9 0-8.33.79-10.27 2.36a7.5 7.5 0 0 0-2.92 6.11c0 3.43 1.76 5.92 5.28 7.5 3.6 1.57 8.8 3 15.55 4.3 5 1.02 9.53 2.27 13.6 3.75a31.93 31.93 0 0 1 10.56 5.7 22.9 22.9 0 0 1 6.8 8.6c1.58 3.33 2.36 7.45 2.36 12.36 0 9.63-3.6 17.17-10.83 22.63-7.22 5.37-17.26 8.06-30.13 8.06Z"/>
  <path fill="#ADADAD" d="m.63 209.45 25.44-22.08a50.23 50.23 0 0 0 4.73-4.45 24.46 24.46 0 0 0 3-3.72 14.6 14.6 0 0 0 1.9-7.27c0-3.58-1.06-6.51-3.18-8.81-2.12-2.37-5.03-3.55-8.72-3.55-4.42 0-7.81 1.21-10.18 3.64-2.36 2.36-3.54 5.72-3.54 10.08H1.54a23 23 0 0 1 1.55-8.54 19.77 19.77 0 0 1 4.54-6.81c2-1.88 4.36-3.33 7.08-4.36a24.27 24.27 0 0 1 9.09-1.64c3.21 0 6.09.52 8.63 1.55 2.54.96 4.7 2.36 6.45 4.17a17.37 17.37 0 0 1 4 6.27 22.6 22.6 0 0 1 1.36 8c0 2.18-.33 4.2-1 6.08a21.67 21.67 0 0 1-2.81 5.37 31.8 31.8 0 0 1-4.27 5 117.5 117.5 0 0 1-5.46 4.9L11.72 209h33.43v7.44H.63v-7Zm77.23 7.9a25.2 25.2 0 0 1-8.81-1.54 17.16 17.16 0 0 1-7.18-5.27c-2.06-2.54-3.7-5.9-4.9-10.08-1.21-4.25-1.82-9.51-1.82-15.81v-1.82c0-5.88.6-10.78 1.82-14.72 1.2-3.94 2.84-7.08 4.9-9.45a17.46 17.46 0 0 1 7.18-5.17 25.23 25.23 0 0 1 8.81-1.55c3.1 0 6 .52 8.72 1.55a17.35 17.35 0 0 1 7.27 5.17c2.06 2.37 3.7 5.52 4.9 9.45 1.22 3.94 1.83 8.84 1.83 14.72v1.82c0 6.3-.61 11.56-1.82 15.8-1.21 4.18-2.85 7.55-4.9 10.09a17.05 17.05 0 0 1-7.28 5.27 24.49 24.49 0 0 1-8.72 1.54Zm0-7.45c1.88 0 3.67-.33 5.36-1 1.76-.72 3.27-2 4.55-3.81 1.33-1.88 2.36-4.45 3.08-7.72.8-3.28 1.19-7.51 1.19-12.72v-1.82c0-4.72-.4-8.6-1.19-11.63-.72-3.03-1.75-5.42-3.08-7.18a9.97 9.97 0 0 0-4.55-3.63c-1.7-.67-3.48-1-5.36-1-1.94 0-3.75.33-5.45 1-1.7.67-3.2 1.88-4.54 3.63-1.27 1.76-2.3 4.15-3.09 7.18-.73 3.03-1.09 6.9-1.09 11.63v1.82c0 5.2.36 9.44 1.09 12.72.79 3.27 1.82 5.84 3.09 7.72a11.15 11.15 0 0 0 4.54 3.81c1.7.67 3.51 1 5.45 1Zm31.81-.45 25.44-22.08a50.2 50.2 0 0 0 4.72-4.45 24.4 24.4 0 0 0 3-3.72 14.6 14.6 0 0 0 1.9-7.27c0-3.58-1.05-6.51-3.17-8.81-2.12-2.37-5.03-3.55-8.72-3.55-4.42 0-7.81 1.21-10.18 3.64-2.36 2.36-3.54 5.72-3.54 10.08h-8.54a23 23 0 0 1 1.54-8.54 19.76 19.76 0 0 1 4.55-6.81 21.1 21.1 0 0 1 7.08-4.36 24.26 24.26 0 0 1 9.09-1.64c3.2 0 6.09.52 8.63 1.55 2.54.96 4.7 2.36 6.45 4.17a17.37 17.37 0 0 1 4 6.27c.9 2.43 1.36 5.1 1.36 8 0 2.18-.33 4.2-1 6.08a21.67 21.67 0 0 1-2.82 5.37 31.87 31.87 0 0 1-4.27 5 118.22 118.22 0 0 1-5.45 4.9L120.75 209h33.44v7.44h-44.52v-7Zm74.96 7.9c-3.45 0-6.54-.45-9.27-1.36a21.37 21.37 0 0 1-6.81-3.9 16.33 16.33 0 0 1-4.27-5.73 17.89 17.89 0 0 1-1.45-7.18h8.54c0 3.1 1.06 5.64 3.17 7.63 2.13 1.94 5.49 2.91 10.09 2.91s7.96-1 10.08-3c2.12-2.06 3.18-4.72 3.18-8 0-3.38-1.09-6.1-3.27-8.17-2.12-2.12-5.45-3.18-9.99-3.18h-6.81v-7.27h6.81c4.36 0 7.51-.9 9.45-2.72 1.94-1.88 2.9-4.45 2.9-7.72 0-3.15-.93-5.6-2.81-7.36-1.88-1.82-5.06-2.73-9.54-2.73-4.3 0-7.45.94-9.45 2.82a8.95 8.95 0 0 0-2.9 6.81h-8.55c0-2.36.46-4.6 1.37-6.72a15.79 15.79 0 0 1 4.09-5.45c1.81-1.58 4-2.82 6.54-3.73 2.6-.9 5.57-1.36 8.9-1.36s6.3.46 8.9 1.36c2.6.91 4.79 2.12 6.54 3.64a14.58 14.58 0 0 1 4.1 5.36c.9 2.06 1.36 4.2 1.36 6.45 0 3.63-.97 6.72-2.91 9.26-1.88 2.49-4.54 4.24-8 5.27a17.68 17.68 0 0 1 8.63 5.64c2.12 2.6 3.18 6.18 3.18 10.72 0 2.42-.48 4.72-1.45 6.9-.97 2.12-2.4 4-4.27 5.64a21.05 21.05 0 0 1-6.81 3.81c-2.73.9-5.82 1.36-9.27 1.36Zm79.04 0c-3.82 0-7.15-.45-10-1.36a21.71 21.71 0 0 1-7.17-3.73 19.52 19.52 0 0 1-4.64-5.63 24.95 24.95 0 0 1-2.27-7h8.54a14 14 0 0 0 1.55 4c.72 1.22 1.7 2.28 2.9 3.18 1.27.91 2.82 1.64 4.64 2.19 1.81.48 3.96.72 6.45.72 5.08 0 8.93-.97 11.53-2.9 2.67-1.94 4-4.34 4-7.18 0-1.76-.3-3.24-.9-4.45a7.58 7.58 0 0 0-2.91-3.18 21.23 21.23 0 0 0-5.36-2.46 86.6 86.6 0 0 0-8.09-2.18 82.16 82.16 0 0 1-9.27-2.54 22.64 22.64 0 0 1-6.36-3.55 14.33 14.33 0 0 1-3.72-5.17c-.79-2-1.18-4.46-1.18-7.36 0-2.36.51-4.54 1.54-6.54a16.07 16.07 0 0 1 4.36-5.36 21.7 21.7 0 0 1 7-3.55c2.79-.9 5.9-1.36 9.36-1.36 3.39 0 6.36.46 8.9 1.36a18.9 18.9 0 0 1 6.45 3.55 16.57 16.57 0 0 1 4.27 5.36 23 23 0 0 1 2.18 6.54h-8.54a13.9 13.9 0 0 0-1.36-3.54 8.35 8.35 0 0 0-2.55-2.91 11.31 11.31 0 0 0-3.9-2 17.98 17.98 0 0 0-5.45-.73c-4.37 0-7.76.91-10.18 2.73-2.36 1.75-3.54 3.9-3.54 6.45 0 1.63.3 3.06.9 4.27a9 9 0 0 0 2.82 3.09 21.5 21.5 0 0 0 4.82 2.27c2 .6 4.36 1.21 7.08 1.81 3.94.85 7.3 1.82 10.09 2.91a21.89 21.89 0 0 1 6.9 3.82 12.94 12.94 0 0 1 3.91 5.36 19.3 19.3 0 0 1 1.27 7.36c0 2.48-.54 4.81-1.63 7a17.56 17.56 0 0 1-4.73 5.63 23.7 23.7 0 0 1-7.54 3.72c-2.97.9-6.36 1.36-10.17 1.36Zm36.3-49.05h7.45v9.08a17.45 17.45 0 0 1 6.82-7.36 19.78 19.78 0 0 1 10.26-2.64c6.06 0 10.9 2 14.54 6 3.63 3.94 5.45 9.81 5.45 17.63v1.81c0 4.12-.48 7.73-1.45 10.81a21.86 21.86 0 0 1-4.1 7.64c-1.75 2-3.87 3.5-6.35 4.54a20.49 20.49 0 0 1-8.09 1.54c-4.12 0-7.57-.9-10.35-2.72a17.95 17.95 0 0 1-6.18-6.82v26.8h-8V168.3Zm22.72 41.97c1.94 0 3.75-.37 5.45-1.1a12.3 12.3 0 0 0 4.36-3.35 14.65 14.65 0 0 0 2.9-5.46c.73-2.18 1.1-4.69 1.1-7.54v-1.81c0-2.6-.37-4.94-1.1-7a13.9 13.9 0 0 0-2.9-5.18 11.53 11.53 0 0 0-4.36-3.27 13.69 13.69 0 0 0-5.45-1.09 16 16 0 0 0-6 1.1 12.57 12.57 0 0 0-4.63 2.9 13.03 13.03 0 0 0-3 4.36 13.7 13.7 0 0 0-1.1 5.45v7.27c0 2.18.37 4.18 1.1 6a13.6 13.6 0 0 0 3 4.63 13.6 13.6 0 0 0 4.63 3 16 16 0 0 0 6 1.09Zm33.18-41.97h7.45v9.08a15.7 15.7 0 0 1 5.09-7.09 13.66 13.66 0 0 1 8.8-2.9c1.22 0 2.19.06 2.92.18.78.12 1.48.27 2.08.45v7.45a11.3 11.3 0 0 0-2.36-.63 20 20 0 0 0-3.09-.19c-1.81 0-3.5.34-5.08 1-1.58.67-2.94 1.6-4.1 2.82a12.32 12.32 0 0 0-2.72 4.27c-.66 1.7-1 3.54-1 5.54v28.16h-8V168.3Zm36.31 0h8v48.14h-8V168.3Zm4-6.37a5.3 5.3 0 0 1-5.46-5.45 5.3 5.3 0 0 1 5.45-5.45 5.3 5.3 0 0 1 5.45 5.45 5.3 5.3 0 0 1-5.45 5.45Zm19.4 6.37h7.45v9.08a15.77 15.77 0 0 1 5.72-7 18.81 18.81 0 0 1 10.72-3c6.06 0 10.54 1.64 13.45 4.91 2.96 3.21 4.45 7.94 4.45 14.17v29.98h-8v-28.16c0-4.48-.94-7.87-2.81-10.17-1.88-2.3-5.03-3.46-9.45-3.46a15 15 0 0 0-6.18 1.18 12.14 12.14 0 0 0-6.63 7.45c-.49 1.64-.73 3.3-.73 5v28.16h-8V168.3Zm74.97 67.22a32.3 32.3 0 0 1-9-1.09 18.21 18.21 0 0 1-6.17-2.81 12.53 12.53 0 0 1-3.63-4.36 15.82 15.82 0 0 1-1.64-5.36h8.36c.3.97.72 1.84 1.27 2.63a6.95 6.95 0 0 0 2.18 2c.9.54 2.06.97 3.45 1.27a26 26 0 0 0 5.18.45c4.9 0 8.51-1.18 10.81-3.54 2.3-2.36 3.45-5.72 3.45-10.08v-7.72a14.4 14.4 0 0 1-6.45 7.17c-2.84 1.58-6.2 2.36-10.08 2.36-2.97 0-5.7-.51-8.18-1.54a17.23 17.23 0 0 1-6.27-4.54 21 21 0 0 1-4.08-7.45 34.63 34.63 0 0 1-1.46-10.54v-1.82c0-3.7.49-6.96 1.46-9.81a21.23 21.23 0 0 1 4.18-7.27c1.75-2 3.84-3.51 6.26-4.54a20.9 20.9 0 0 1 8.09-1.55c4.12 0 7.7.94 10.72 2.82a14.82 14.82 0 0 1 6.36 7.18v-9.09h7.45v46.34c0 6.54-1.9 11.66-5.72 15.35-3.82 3.7-9.33 5.54-16.54 5.54Zm-.45-26.16c2.18 0 4.18-.34 6-1a13.6 13.6 0 0 0 4.63-3 13.81 13.81 0 0 0 3-4.54 14.82 14.82 0 0 0 1.08-5.72v-7.27c0-1.82-.36-3.55-1.09-5.18a13.3 13.3 0 0 0-3-4.27 13.22 13.22 0 0 0-4.63-2.82 16 16 0 0 0-6-1.09c-1.93 0-3.75.37-5.44 1.1a12.8 12.8 0 0 0-4.46 3.17 15.98 15.98 0 0 0-2.9 5.09c-.67 1.94-1 4.18-1 6.72v1.82c0 2.72.33 5.15 1 7.27.72 2.12 1.7 3.9 2.9 5.36a12.31 12.31 0 0 0 4.46 3.27c1.7.72 3.5 1.09 5.45 1.09Z"/>
</svg>
